# This file uses centimeters as units for non-parametric coordinates.

mtllib syr.mtl
g default
v 109.945601 477.143520 256.033271
v 109.945601 125.749050 256.033271
v 275.079514 477.143520 44.410942
v 275.079514 125.749050 44.410942
v -109.945601 477.143520 -256.033271
v -109.945601 125.749050 -256.033271
v -275.079514 477.143520 -44.410942
v -275.079514 125.749050 -44.410942
v 16.275799 477.143520 238.918561
v 16.275799 125.749050 238.918561
v 235.708754 477.143520 -42.289049
v 235.708754 125.749050 -42.289049
v -16.275799 477.143520 -238.918561
v -16.275799 125.749050 -238.918561
v -235.708754 477.143520 42.289049
v -235.708754 125.749050 42.289049
v 112.722112 153.001492 262.498825
v 112.722112 149.392773 262.498825
v 282.026058 153.001492 45.532518
v 282.026058 149.392773 45.532518
v -112.722112 153.001492 -262.498825
v -112.722112 149.392773 -262.498825
v -282.026058 153.001492 -45.532518
v -282.026058 149.392773 -45.532518
v -241.777248 153.001492 43.266300
v -241.777248 149.392773 43.266300
v -16.802998 153.001492 -245.042587
v -16.802998 149.392773 -245.042587
v 241.272710 153.001492 -43.660002
v 241.272710 149.392773 -43.660002
v 16.298460 153.001492 244.648885
v 16.298460 149.392773 244.648885
v 112.722112 363.869564 262.498825
v 112.722112 360.260830 262.498825
v 282.026058 363.869564 45.532518
v 282.026058 360.260830 45.532518
v -112.722112 363.869564 -262.498825
v -112.722112 360.260830 -262.498825
v -282.026058 363.869564 -45.532518
v -282.026058 360.260830 -45.532518
v -125.382347 363.869564 134.091996
v -125.382347 360.260830 134.091996
v 99.591903 363.869564 -154.216891
v 99.591903 360.260830 -154.216891
v -14.995523 363.869564 -243.632172
v -14.995523 360.260830 -243.632172
v -239.969773 363.869564 44.676715
v -239.969773 360.260830 44.676715
v -99.591903 363.869564 154.216891
v -99.591903 360.260830 154.216891
v 125.382347 363.869564 -134.091996
v 125.382347 360.260830 -134.091996
v 239.969773 363.869564 -44.676715
v 239.969773 360.260830 -44.676715
v 14.995523 363.869564 243.632172
v 14.995523 360.260830 243.632172
v 16.521091 481.580044 242.520218
v 16.521091 121.312527 242.520218
v 239.262009 481.580044 -42.926610
v 239.262009 121.312527 -42.926610
v -16.521091 481.580044 -242.520218
v -16.521091 121.312527 -242.520218
v -239.262009 481.580044 42.926610
v -239.262009 121.312527 42.926610
v 111.602941 481.580044 259.892920
v 111.602941 121.312527 259.892920
v 279.226265 481.580044 45.080362
v 279.226265 121.312527 45.080362
v -111.602941 481.580044 -259.892920
v -111.602941 121.312527 -259.892920
v -279.226265 481.580044 -45.080362
v -279.226265 121.312527 -45.080362
vt 0.000000 0.000000
vt 1.000000 0.000000
vt 1.000000 1.000000
vt 0.000000 1.000000
vt 0.000000 0.000000
vt 1.000000 0.000000
vt 1.000000 1.000000
vt 0.000000 1.000000
vt 0.000000 0.000000
vt 1.000000 0.000000
vt 1.000000 1.000000
vt 0.000000 1.000000
vt 0.000000 0.000000
vt 1.000000 0.000000
vt 1.000000 1.000000
vt 0.000000 1.000000
vt 0.000000 0.000000
vt 1.000000 0.000000
vt 1.000000 1.000000
vt 0.000000 1.000000
vt 0.000000 0.000000
vt 1.000000 0.000000
vt 1.000000 1.000000
vt 0.000000 1.000000
vt 0.000000 0.000000
vt 1.000000 0.000000
vt 1.000000 1.000000
vt 0.000000 1.000000
vt 0.000000 0.000000
vt 1.000000 0.000000
vt 1.000000 1.000000
vt 0.000000 1.000000
vt 0.000000 0.000000
vt 1.000000 0.000000
vt 1.000000 1.000000
vt 0.000000 1.000000
vt 0.000000 0.000000
vt 1.000000 0.000000
vt 1.000000 1.000000
vt 0.000000 1.000000
vt 0.000000 0.000000
vt 1.000000 0.000000
vt 1.000000 1.000000
vt 0.000000 1.000000
vt 0.000000 0.000000
vt 1.000000 0.000000
vt 1.000000 1.000000
vt 0.000000 1.000000
vt 0.000000 0.000000
vt 1.000000 0.000000
vt 1.000000 1.000000
vt 0.000000 1.000000
vt 0.000000 0.000000
vt 1.000000 0.000000
vt 1.000000 1.000000
vt 0.000000 1.000000
vt 1.000000 1.000000
vt 1.000000 0.000000
vt 0.000000 0.000000
vt 0.000000 1.000000
vt 1.000000 1.000000
vt 1.000000 0.000000
vt 0.000000 0.000000
vt 0.000000 1.000000
vt 1.000000 1.000000
vt 1.000000 0.000000
vt 0.000000 0.000000
vt 0.000000 1.000000
vt 1.000000 1.000000
vt 1.000000 0.000000
vt 0.000000 0.000000
vt 0.000000 1.000000
vt 1.000000 1.000000
vt 1.000000 0.000000
vt 0.000000 0.000000
vt 0.000000 1.000000
vt 1.000000 1.000000
vt 1.000000 0.000000
vt 0.000000 0.000000
vt 0.000000 1.000000
vt 0.000000 0.000000
vt 1.000000 0.000000
vt 1.000000 1.000000
vt 0.000000 1.000000
vt 0.000000 0.000000
vt 1.000000 0.000000
vt 1.000000 1.000000
vt 0.000000 1.000000
vt 0.000000 0.000000
vt 1.000000 0.000000
vt 1.000000 1.000000
vt 0.000000 1.000000
vt 0.000000 0.000000
vt 1.000000 0.000000
vt 1.000000 1.000000
vt 0.000000 1.000000
vt 0.000000 0.000000
vt 1.000000 0.000000
vt 1.000000 1.000000
vt 0.000000 1.000000
vt 0.000000 0.000000
vt 1.000000 0.000000
vt 1.000000 1.000000
vt 0.000000 1.000000
vt 0.000000 0.000000
vt 1.000000 0.000000
vt 1.000000 1.000000
vt 0.000000 1.000000
vt 0.000000 0.000000
vt 1.000000 0.000000
vt 1.000000 1.000000
vt 0.000000 1.000000
vt 0.000000 0.000000
vt 1.000000 0.000000
vt 1.000000 1.000000
vt 0.000000 1.000000
vt 0.000000 0.000000
vt 1.000000 0.000000
vt 1.000000 1.000000
vt 0.000000 1.000000
vt 0.000000 0.000000
vt 1.000000 0.000000
vt 1.000000 1.000000
vt 0.000000 1.000000
vt 0.000000 0.000000
vt 1.000000 0.000000
vt 1.000000 1.000000
vt 0.000000 1.000000
vt 1.000000 1.000000
vt 1.000000 0.000000
vt 0.000000 0.000000
vt 0.000000 1.000000
vt 1.000000 1.000000
vt 1.000000 0.000000
vt 0.000000 0.000000
vt 0.000000 1.000000
vt 1.000000 1.000000
vt 1.000000 0.000000
vt 0.000000 0.000000
vt 0.000000 1.000000
vt 1.000000 1.000000
vt 1.000000 0.000000
vt 0.000000 0.000000
vt 0.000000 1.000000
vt 1.000000 1.000000
vt 1.000000 0.000000
vt 0.000000 0.000000
vt 0.000000 1.000000
vt 1.000000 1.000000
vt 1.000000 0.000000
vt 0.000000 0.000000
vt 0.000000 1.000000
vt 0.000000 0.000000
vt 1.000000 0.000000
vt 1.000000 1.000000
vt 0.000000 1.000000
vt 0.000000 0.000000
vt 1.000000 0.000000
vt 1.000000 1.000000
vt 0.000000 1.000000
vt 0.000000 0.000000
vt 1.000000 0.000000
vt 1.000000 1.000000
vt 0.000000 1.000000
vt 0.000000 0.000000
vt 1.000000 0.000000
vt 1.000000 1.000000
vt 0.000000 1.000000
vt 0.000000 0.000000
vt 1.000000 0.000000
vt 1.000000 1.000000
vt 0.000000 1.000000
vt 0.000000 0.000000
vt 1.000000 0.000000
vt 1.000000 1.000000
vt 0.000000 1.000000
vt 0.000000 0.000000
vt 1.000000 0.000000
vt 1.000000 1.000000
vt 0.000000 1.000000
vt 0.000000 0.000000
vt 1.000000 0.000000
vt 1.000000 1.000000
vt 0.000000 1.000000
vn 0.788379 0.000000 0.615190
vn 0.788379 0.000000 0.615190
vn 0.788379 0.000000 0.615190
vn 0.788379 0.000000 0.615190
vn 0.615190 0.000000 -0.788379
vn 0.615190 0.000000 -0.788379
vn 0.615190 0.000000 -0.788379
vn 0.615190 0.000000 -0.788379
vn -0.788379 0.000000 -0.615190
vn -0.788379 0.000000 -0.615190
vn -0.788379 0.000000 -0.615190
vn -0.788379 0.000000 -0.615190
vn -0.615190 0.000000 0.788379
vn -0.615190 0.000000 0.788379
vn -0.615190 0.000000 0.788379
vn -0.615190 0.000000 0.788379
vn 0.788379 0.000000 0.615190
vn 0.788379 0.000000 0.615190
vn 0.788379 0.000000 0.615190
vn 0.788379 0.000000 0.615190
vn 0.615190 0.000000 -0.788379
vn 0.615190 0.000000 -0.788379
vn 0.615190 0.000000 -0.788379
vn 0.615190 0.000000 -0.788379
vn -0.788379 0.000000 -0.615190
vn -0.788379 0.000000 -0.615190
vn -0.788379 0.000000 -0.615190
vn -0.788379 0.000000 -0.615190
vn -0.615190 0.000000 0.788379
vn -0.615190 0.000000 0.788379
vn -0.615190 0.000000 0.788379
vn -0.615190 0.000000 0.788379
vn 0.788379 0.000000 0.615190
vn 0.788379 0.000000 0.615190
vn 0.788379 0.000000 0.615190
vn 0.788379 0.000000 0.615190
vn 0.615190 0.000000 -0.788379
vn 0.615190 0.000000 -0.788379
vn 0.615190 0.000000 -0.788379
vn 0.615190 0.000000 -0.788379
vn -0.788379 0.000000 -0.615190
vn -0.788379 0.000000 -0.615190
vn -0.788379 0.000000 -0.615190
vn -0.788379 0.000000 -0.615190
vn -0.615190 0.000000 0.788379
vn -0.615190 0.000000 0.788379
vn -0.615190 0.000000 0.788379
vn -0.615190 0.000000 0.788379
vn 0.000000 1.000000 0.000000
vn 0.000000 1.000000 0.000000
vn 0.000000 1.000000 0.000000
vn 0.000000 1.000000 0.000000
vn 0.000000 -1.000000 0.000000
vn 0.000000 -1.000000 0.000000
vn 0.000000 -1.000000 0.000000
vn 0.000000 -1.000000 0.000000
vn -0.788379 0.000000 -0.615190
vn -0.788379 0.000000 -0.615190
vn -0.788379 0.000000 -0.615190
vn -0.788379 0.000000 -0.615190
vn 0.615190 0.000000 -0.788379
vn 0.615190 0.000000 -0.788379
vn 0.615190 0.000000 -0.788379
vn 0.615190 0.000000 -0.788379
vn 0.788379 0.000000 0.615190
vn 0.788379 0.000000 0.615190
vn 0.788379 0.000000 0.615190
vn 0.788379 0.000000 0.615190
vn -0.615190 0.000000 0.788379
vn -0.615190 0.000000 0.788379
vn -0.615190 0.000000 0.788379
vn -0.615190 0.000000 0.788379
vn 0.000000 1.000000 0.000000
vn 0.000000 1.000000 0.000000
vn 0.000000 1.000000 0.000000
vn 0.000000 1.000000 0.000000
vn 0.000000 -1.000000 0.000000
vn 0.000000 -1.000000 0.000000
vn 0.000000 -1.000000 0.000000
vn 0.000000 -1.000000 0.000000
vn 0.788379 0.000000 0.615190
vn 0.788379 0.000000 0.615190
vn 0.788379 0.000000 0.615190
vn 0.788379 0.000000 0.615190
vn 0.615190 0.000000 -0.788379
vn 0.615190 0.000000 -0.788379
vn 0.615190 0.000000 -0.788379
vn 0.615190 0.000000 -0.788379
vn -0.788379 0.000000 -0.615190
vn -0.788379 0.000000 -0.615190
vn -0.788379 0.000000 -0.615190
vn -0.788379 0.000000 -0.615190
vn -0.615190 0.000000 0.788379
vn -0.615190 0.000000 0.788379
vn -0.615190 0.000000 0.788379
vn -0.615190 0.000000 0.788379
vn 0.000000 1.000000 0.000000
vn 0.000000 1.000000 0.000000
vn 0.000000 1.000000 0.000000
vn 0.000000 1.000000 0.000000
vn 0.000000 -1.000000 0.000000
vn 0.000000 -1.000000 0.000000
vn 0.000000 -1.000000 0.000000
vn 0.000000 -1.000000 0.000000
vn 0.788379 0.000000 0.615190
vn 0.788379 0.000000 0.615190
vn 0.788379 0.000000 0.615190
vn 0.788379 0.000000 0.615190
vn 0.615190 0.000000 -0.788379
vn 0.615190 0.000000 -0.788379
vn 0.615190 0.000000 -0.788379
vn 0.615190 0.000000 -0.788379
vn -0.788379 0.000000 -0.615190
vn -0.788379 0.000000 -0.615190
vn -0.788379 0.000000 -0.615190
vn -0.788379 0.000000 -0.615190
vn -0.615190 0.000000 0.788379
vn -0.615190 0.000000 0.788379
vn -0.615190 0.000000 0.788379
vn -0.615190 0.000000 0.788379
vn 0.000000 1.000000 0.000000
vn 0.000000 1.000000 0.000000
vn 0.000000 1.000000 0.000000
vn 0.000000 1.000000 0.000000
vn 0.000000 -1.000000 0.000000
vn 0.000000 -1.000000 0.000000
vn 0.000000 -1.000000 0.000000
vn 0.000000 -1.000000 0.000000
vn -0.788379 0.000000 -0.615190
vn -0.788379 0.000000 -0.615190
vn -0.788379 0.000000 -0.615190
vn -0.788379 0.000000 -0.615190
vn 0.615190 0.000000 -0.788379
vn 0.615190 0.000000 -0.788379
vn 0.615190 0.000000 -0.788379
vn 0.615190 0.000000 -0.788379
vn 0.788379 0.000000 0.615190
vn 0.788379 0.000000 0.615190
vn 0.788379 0.000000 0.615190
vn 0.788379 0.000000 0.615190
vn -0.615190 0.000000 0.788379
vn -0.615190 0.000000 0.788379
vn -0.615190 0.000000 0.788379
vn -0.615190 0.000000 0.788379
vn 0.000000 1.000000 0.000000
vn 0.000000 1.000000 0.000000
vn 0.000000 1.000000 0.000000
vn 0.000000 1.000000 0.000000
vn 0.000000 -1.000000 0.000000
vn 0.000000 -1.000000 0.000000
vn 0.000000 -1.000000 0.000000
vn 0.000000 -1.000000 0.000000
vn 0.788379 0.000000 0.615190
vn 0.788379 0.000000 0.615190
vn 0.788379 0.000000 0.615190
vn 0.788379 0.000000 0.615190
vn 0.615190 0.000000 -0.788379
vn 0.615190 0.000000 -0.788379
vn 0.615190 0.000000 -0.788379
vn 0.615190 0.000000 -0.788379
vn -0.788379 0.000000 -0.615190
vn -0.788379 0.000000 -0.615190
vn -0.788379 0.000000 -0.615190
vn -0.788379 0.000000 -0.615190
vn -0.615190 0.000000 0.788379
vn -0.615190 0.000000 0.788379
vn -0.615190 0.000000 0.788379
vn -0.615190 0.000000 0.788379
vn 0.788379 0.000000 0.615190
vn 0.788379 0.000000 0.615190
vn 0.788379 0.000000 0.615190
vn 0.788379 0.000000 0.615190
vn 0.615190 0.000000 -0.788379
vn 0.615190 0.000000 -0.788379
vn 0.615190 0.000000 -0.788379
vn 0.615190 0.000000 -0.788379
vn -0.788379 0.000000 -0.615190
vn -0.788379 0.000000 -0.615190
vn -0.788379 0.000000 -0.615190
vn -0.788379 0.000000 -0.615190
vn -0.615190 0.000000 0.788379
vn -0.615190 0.000000 0.788379
vn -0.615190 0.000000 0.788379
vn -0.615190 0.000000 0.788379
s off
g syrplan group1
usemtl lambert13SG
f 2/1/1 4/2/2 3/3/3 1/4/4
f 4/5/5 6/6/6 5/7/7 3/8/8
f 6/9/9 8/10/10 7/11/11 5/12/12
f 8/13/13 2/14/14 1/15/15 7/16/16
f 10/17/17 12/18/18 11/19/19 9/20/20
f 12/21/21 14/22/22 13/23/23 11/24/24
f 14/25/25 16/26/26 15/27/27 13/28/28
f 16/29/29 10/30/30 9/31/31 15/32/32
f 18/33/33 20/34/34 19/35/35 17/36/36
f 20/37/37 22/38/38 21/39/39 19/40/40
f 22/41/41 24/42/42 23/43/43 21/44/44
f 24/45/45 18/46/46 17/47/47 23/48/48
f 17/49/49 19/50/50 21/51/51 23/52/52
f 24/53/53 22/54/54 20/55/55 18/56/56
f 27/57/57 28/58/58 26/59/59 25/60/60
f 29/61/61 30/62/62 28/63/63 27/64/64
f 31/65/65 32/66/66 30/67/67 29/68/68
f 25/69/69 26/70/70 32/71/71 31/72/72
f 29/73/73 27/74/74 25/75/75 31/76/76
f 28/77/77 30/78/78 32/79/79 26/80/80
f 34/81/81 36/82/82 35/83/83 33/84/84
f 36/85/85 38/86/86 37/87/87 35/88/88
f 38/89/89 40/90/90 39/91/91 37/92/92
f 40/93/93 34/94/94 33/95/95 39/96/96
f 33/97/97 35/98/98 37/99/99 39/100/100
f 40/101/101 38/102/102 36/103/103 34/104/104
f 42/105/105 44/106/106 43/107/107 41/108/108
f 44/109/109 46/110/110 45/111/111 43/112/112
f 46/113/113 48/114/114 47/115/115 45/116/116
f 48/117/117 42/118/118 41/119/119 47/120/120
f 41/121/121 43/122/122 45/123/123 47/124/124
f 48/125/125 46/126/126 44/127/127 42/128/128
f 51/129/129 52/130/130 50/131/131 49/132/132
f 53/133/133 54/134/134 52/135/135 51/136/136
f 55/137/137 56/138/138 54/139/139 53/140/140
f 49/141/141 50/142/142 56/143/143 55/144/144
f 53/145/145 51/146/146 49/147/147 55/148/148
f 52/149/149 54/150/150 56/151/151 50/152/152
f 58/153/153 60/154/154 59/155/155 57/156/156
f 60/157/157 62/158/158 61/159/159 59/160/160
f 62/161/161 64/162/162 63/163/163 61/164/164
f 64/165/165 58/166/166 57/167/167 63/168/168
f 66/169/169 68/170/170 67/171/171 65/172/172
f 68/173/173 70/174/174 69/175/175 67/176/176
f 70/177/177 72/178/178 71/179/179 69/180/180
f 72/181/181 66/182/182 65/183/183 71/184/184
