# This file uses centimeters as units for non-parametric coordinates.

mtllib tishi.mtl
g default
v -4.617728 0.556591 -4.931971
v -4.617729 0.556591 4.931970
v 3.924695 0.556591 0.000000
v -4.651222 0.806591 -4.989984
v -4.651222 0.806591 4.989983
v 3.991682 0.806591 0.000000
v -4.742728 0.989604 -5.148477
v -4.742729 0.989604 5.148477
v 4.174695 0.989604 0.000000
v -4.867728 1.056591 -5.364984
v -4.867729 1.056591 5.364983
v 4.424695 1.056591 0.000000
v -4.992728 0.989604 -5.581490
v -4.992729 0.989604 5.581489
v 4.674695 0.989604 0.000000
v -5.084234 0.806591 -5.739984
v -5.084235 0.806591 5.739983
v 4.857707 0.806591 0.000000
v -5.117728 0.556591 -5.797997
v -5.117729 0.556591 5.797996
v 4.924695 0.556591 0.000000
v -5.084234 0.306591 -5.739984
v -5.084235 0.306591 5.739983
v 4.857707 0.306591 0.000000
v -4.992728 0.123579 -5.581490
v -4.992729 0.123579 5.581489
v 4.674695 0.123579 0.000000
v -4.867728 0.056591 -5.364984
v -4.867729 0.056591 5.364983
v 4.424695 0.056591 0.000000
v -4.742728 0.123579 -5.148477
v -4.742729 0.123579 5.148477
v 4.174695 0.123579 0.000000
v -4.651222 0.306591 -4.989984
v -4.651222 0.306591 4.989983
v 3.991682 0.306591 0.000000
vt 0.000000 1.000000
vt 0.333333 1.000000
vt 0.666667 1.000000
vt 1.000000 1.000000
vt 0.000000 0.916667
vt 0.333333 0.916667
vt 0.666667 0.916667
vt 1.000000 0.916667
vt 0.000000 0.833333
vt 0.333333 0.833333
vt 0.666667 0.833333
vt 1.000000 0.833333
vt 0.000000 0.750000
vt 0.333333 0.750000
vt 0.666667 0.750000
vt 1.000000 0.750000
vt 0.000000 0.666667
vt 0.333333 0.666667
vt 0.666667 0.666667
vt 1.000000 0.666667
vt 0.000000 0.583333
vt 0.333333 0.583333
vt 0.666667 0.583333
vt 1.000000 0.583333
vt 0.000000 0.500000
vt 0.333333 0.500000
vt 0.666667 0.500000
vt 1.000000 0.500000
vt 0.000000 0.416667
vt 0.333333 0.416667
vt 0.666667 0.416667
vt 1.000000 0.416667
vt 0.000000 0.333333
vt 0.333333 0.333333
vt 0.666667 0.333333
vt 1.000000 0.333333
vt 0.000000 0.250000
vt 0.333333 0.250000
vt 0.666667 0.250000
vt 1.000000 0.250000
vt 0.000000 0.166667
vt 0.333333 0.166667
vt 0.666667 0.166667
vt 1.000000 0.166667
vt 0.000000 0.083333
vt 0.333333 0.083333
vt 0.666667 0.083333
vt 1.000000 0.083333
vt 0.000000 0.000000
vt 0.333333 0.000000
vt 0.666667 0.000000
vt 1.000000 0.000000
vn 0.991144 0.132788 0.000000
vn 0.991144 0.132788 0.000000
vn 0.991144 0.132788 0.000000
vn 0.991144 0.132788 0.000000
vn -0.495572 0.132789 -0.858356
vn -0.495572 0.132789 -0.858356
vn -0.495572 0.132789 -0.858356
vn -0.495572 0.132789 -0.858356
vn -0.495572 0.132789 0.858356
vn -0.495572 0.132789 0.858356
vn -0.495572 0.132789 0.858356
vn -0.495572 0.132789 0.858356
vn 0.894428 0.447212 0.000000
vn 0.894428 0.447212 0.000000
vn 0.894428 0.447212 0.000000
vn 0.894428 0.447212 0.000000
vn -0.447214 0.447213 -0.774597
vn -0.447214 0.447213 -0.774597
vn -0.447214 0.447213 -0.774597
vn -0.447214 0.447213 -0.774597
vn -0.447214 0.447213 0.774597
vn -0.447214 0.447213 0.774597
vn -0.447214 0.447213 0.774597
vn -0.447214 0.447213 0.774597
vn 0.472347 0.881413 0.000000
vn 0.472347 0.881413 0.000000
vn 0.472347 0.881413 0.000000
vn 0.472347 0.881413 0.000000
vn -0.236174 0.881412 -0.409066
vn -0.236174 0.881412 -0.409066
vn -0.236174 0.881412 -0.409066
vn -0.236174 0.881412 -0.409066
vn -0.236174 0.881413 0.409065
vn -0.236174 0.881413 0.409065
vn -0.236174 0.881413 0.409065
vn -0.236174 0.881413 0.409065
vn -0.472348 0.881412 -0.000000
vn -0.472348 0.881412 -0.000000
vn -0.472348 0.881412 -0.000000
vn -0.472348 0.881412 -0.000000
vn 0.236174 0.881412 0.409065
vn 0.236174 0.881413 0.409065
vn 0.236174 0.881413 0.409065
vn 0.236174 0.881413 0.409065
vn 0.236174 0.881413 -0.409065
vn 0.236174 0.881413 -0.409065
vn 0.236174 0.881413 -0.409065
vn 0.236174 0.881413 -0.409065
vn -0.894428 0.447213 -0.000000
vn -0.894428 0.447213 -0.000000
vn -0.894428 0.447213 -0.000000
vn -0.894428 0.447213 -0.000000
vn 0.447214 0.447213 0.774597
vn 0.447214 0.447213 0.774597
vn 0.447214 0.447213 0.774597
vn 0.447214 0.447213 0.774597
vn 0.447214 0.447213 -0.774597
vn 0.447214 0.447213 -0.774597
vn 0.447214 0.447213 -0.774597
vn 0.447214 0.447213 -0.774597
vn -0.991144 0.132789 -0.000000
vn -0.991144 0.132789 -0.000000
vn -0.991144 0.132789 -0.000000
vn -0.991144 0.132789 -0.000000
vn 0.495572 0.132789 0.858356
vn 0.495572 0.132789 0.858356
vn 0.495572 0.132789 0.858356
vn 0.495572 0.132789 0.858356
vn 0.495572 0.132789 -0.858356
vn 0.495572 0.132789 -0.858356
vn 0.495572 0.132789 -0.858356
vn 0.495572 0.132789 -0.858356
vn -0.991144 -0.132789 -0.000000
vn -0.991144 -0.132789 -0.000000
vn -0.991144 -0.132789 -0.000000
vn -0.991144 -0.132789 -0.000000
vn 0.495572 -0.132789 0.858356
vn 0.495572 -0.132789 0.858356
vn 0.495572 -0.132789 0.858356
vn 0.495572 -0.132789 0.858356
vn 0.495572 -0.132789 -0.858356
vn 0.495572 -0.132789 -0.858356
vn 0.495572 -0.132789 -0.858356
vn 0.495572 -0.132789 -0.858356
vn -0.894428 -0.447213 -0.000000
vn -0.894428 -0.447213 -0.000000
vn -0.894428 -0.447213 -0.000000
vn -0.894428 -0.447213 -0.000000
vn 0.447214 -0.447213 0.774597
vn 0.447214 -0.447213 0.774597
vn 0.447214 -0.447213 0.774597
vn 0.447214 -0.447213 0.774597
vn 0.447214 -0.447213 -0.774597
vn 0.447214 -0.447213 -0.774597
vn 0.447214 -0.447213 -0.774597
vn 0.447214 -0.447213 -0.774597
vn -0.472348 -0.881412 -0.000000
vn -0.472348 -0.881412 -0.000000
vn -0.472348 -0.881412 -0.000000
vn -0.472348 -0.881412 -0.000000
vn 0.236174 -0.881413 0.409065
vn 0.236174 -0.881413 0.409065
vn 0.236174 -0.881413 0.409065
vn 0.236174 -0.881413 0.409065
vn 0.236174 -0.881413 -0.409065
vn 0.236174 -0.881413 -0.409065
vn 0.236174 -0.881413 -0.409065
vn 0.236174 -0.881413 -0.409065
vn 0.472348 -0.881412 0.000000
vn 0.472348 -0.881412 0.000000
vn 0.472348 -0.881412 0.000000
vn 0.472348 -0.881412 0.000000
vn -0.236174 -0.881412 -0.409066
vn -0.236174 -0.881412 -0.409066
vn -0.236174 -0.881412 -0.409066
vn -0.236174 -0.881412 -0.409066
vn -0.236174 -0.881413 0.409064
vn -0.236174 -0.881413 0.409065
vn -0.236174 -0.881413 0.409064
vn -0.236174 -0.881413 0.409065
vn 0.894428 -0.447212 0.000000
vn 0.894428 -0.447212 0.000000
vn 0.894428 -0.447212 0.000000
vn 0.894428 -0.447212 0.000000
vn -0.447214 -0.447213 -0.774597
vn -0.447214 -0.447213 -0.774597
vn -0.447214 -0.447213 -0.774597
vn -0.447214 -0.447213 -0.774597
vn -0.447214 -0.447214 0.774597
vn -0.447214 -0.447213 0.774597
vn -0.447214 -0.447213 0.774597
vn -0.447214 -0.447213 0.774597
vn 0.991144 -0.132788 0.000000
vn 0.991144 -0.132788 0.000000
vn 0.991144 -0.132788 0.000000
vn 0.991144 -0.132788 0.000000
vn -0.495572 -0.132789 -0.858356
vn -0.495572 -0.132789 -0.858356
vn -0.495572 -0.132789 -0.858356
vn -0.495572 -0.132789 -0.858356
vn -0.495572 -0.132789 0.858356
vn -0.495572 -0.132789 0.858356
vn -0.495572 -0.132789 0.858356
vn -0.495572 -0.132789 0.858356
s off
g pTorus1
usemtl initialShadingGroup
f 2/2/1 1/1/2 4/5/3 5/6/4
f 3/3/5 2/2/6 5/6/7 6/7/8
f 1/4/9 3/3/10 6/7/11 4/8/12
f 5/6/13 4/5/14 7/9/15 8/10/16
f 6/7/17 5/6/18 8/10/19 9/11/20
f 4/8/21 6/7/22 9/11/23 7/12/24
f 8/10/25 7/9/26 10/13/27 11/14/28
f 9/11/29 8/10/30 11/14/31 12/15/32
f 7/12/33 9/11/34 12/15/35 10/16/36
f 11/14/37 10/13/38 13/17/39 14/18/40
f 12/15/41 11/14/42 14/18/43 15/19/44
f 10/16/45 12/15/46 15/19/47 13/20/48
f 14/18/49 13/17/50 16/21/51 17/22/52
f 15/19/53 14/18/54 17/22/55 18/23/56
f 13/20/57 15/19/58 18/23/59 16/24/60
f 17/22/61 16/21/62 19/25/63 20/26/64
f 18/23/65 17/22/66 20/26/67 21/27/68
f 16/24/69 18/23/70 21/27/71 19/28/72
f 20/26/73 19/25/74 22/29/75 23/30/76
f 21/27/77 20/26/78 23/30/79 24/31/80
f 19/28/81 21/27/82 24/31/83 22/32/84
f 23/30/85 22/29/86 25/33/87 26/34/88
f 24/31/89 23/30/90 26/34/91 27/35/92
f 22/32/93 24/31/94 27/35/95 25/36/96
f 26/34/97 25/33/98 28/37/99 29/38/100
f 27/35/101 26/34/102 29/38/103 30/39/104
f 25/36/105 27/35/106 30/39/107 28/40/108
f 29/38/109 28/37/110 31/41/111 32/42/112
f 30/39/113 29/38/114 32/42/115 33/43/116
f 28/40/117 30/39/118 33/43/119 31/44/120
f 32/42/121 31/41/122 34/45/123 35/46/124
f 33/43/125 32/42/126 35/46/127 36/47/128
f 31/44/129 33/43/130 36/47/131 34/48/132
f 35/46/133 34/45/134 1/49/135 2/50/136
f 36/47/137 35/46/138 2/50/139 3/51/140
f 34/48/141 36/47/142 3/51/143 1/52/144
g default
v 1.521681 -0.129964 0.672895
v 2.867472 -0.129964 0.672895
v 1.521681 1.215827 0.672895
v 2.867472 1.215827 0.672895
v 1.521681 1.215827 -0.672895
v 2.867472 1.215827 -0.672895
v 1.521681 -0.129964 -0.672895
v 2.867472 -0.129964 -0.672895
vt 0.375000 0.000000
vt 0.625000 0.000000
vt 0.375000 0.250000
vt 0.625000 0.250000
vt 0.375000 0.500000
vt 0.625000 0.500000
vt 0.375000 0.750000
vt 0.625000 0.750000
vt 0.375000 1.000000
vt 0.625000 1.000000
vt 0.875000 0.000000
vt 0.875000 0.250000
vt 0.125000 0.000000
vt 0.125000 0.250000
vn 0.000000 0.000000 1.000000
vn 0.000000 0.000000 1.000000
vn 0.000000 0.000000 1.000000
vn 0.000000 0.000000 1.000000
vn 0.000000 1.000000 0.000000
vn 0.000000 1.000000 0.000000
vn 0.000000 1.000000 0.000000
vn 0.000000 1.000000 0.000000
vn 0.000000 0.000000 -1.000000
vn 0.000000 0.000000 -1.000000
vn 0.000000 0.000000 -1.000000
vn 0.000000 0.000000 -1.000000
vn 0.000000 -1.000000 0.000000
vn 0.000000 -1.000000 0.000000
vn 0.000000 -1.000000 0.000000
vn 0.000000 -1.000000 0.000000
vn 1.000000 0.000000 0.000000
vn 1.000000 0.000000 0.000000
vn 1.000000 0.000000 0.000000
vn 1.000000 0.000000 0.000000
vn -1.000000 0.000000 0.000000
vn -1.000000 0.000000 0.000000
vn -1.000000 0.000000 0.000000
vn -1.000000 0.000000 0.000000
s off
g pCube2
usemtl initialShadingGroup
f 37/53/145 38/54/146 40/56/147 39/55/148
f 39/55/149 40/56/150 42/58/151 41/57/152
f 41/57/153 42/58/154 44/60/155 43/59/156
f 43/59/157 44/60/158 38/62/159 37/61/160
f 38/54/161 44/63/162 42/64/163 40/56/164
f 43/65/165 37/53/166 39/55/167 41/66/168
g default
v 0.969909 1.040655 -0.130142
v 0.971936 0.981238 -0.247545
v 0.975092 0.888695 -0.340716
v 0.979068 0.772083 -0.400536
v 0.983477 0.642818 -0.421149
v 0.987885 0.513553 -0.400536
v 0.991861 0.396941 -0.340716
v 0.995017 0.304397 -0.247545
v 0.997044 0.244981 -0.130142
v 0.997742 0.224507 0.000000
v 0.997044 0.244981 0.130142
v 0.995017 0.304397 0.247545
v 0.991861 0.396941 0.340716
v 0.987885 0.513553 0.400536
v 0.983477 0.642818 0.421148
v 0.979068 0.772083 0.400536
v 0.975092 0.888695 0.340716
v 0.971936 0.981238 0.247545
v 0.969909 1.040655 0.130142
v 0.969211 1.061128 0.000000
v -4.096574 0.867878 -0.130142
v -4.094547 0.808461 -0.247545
v -4.091392 0.715917 -0.340716
v -4.087415 0.599306 -0.400536
v -4.083007 0.470040 -0.421149
v -4.078598 0.340775 -0.400536
v -4.074622 0.224163 -0.340716
v -4.071466 0.131620 -0.247545
v -4.069440 0.072203 -0.130142
v -4.068741 0.051730 0.000000
v -4.069440 0.072203 0.130142
v -4.071466 0.131620 0.247545
v -4.074622 0.224163 0.340716
v -4.078598 0.340775 0.400536
v -4.083007 0.470040 0.421148
v -4.087415 0.599305 0.400536
v -4.091392 0.715917 0.340716
v -4.094547 0.808461 0.247545
v -4.096574 0.867877 0.130142
v -4.097272 0.888351 0.000000
v 0.983477 0.642818 0.000000
v -4.083007 0.470040 0.000000
vt 0.648603 0.107966
vt 0.626409 0.064408
vt 0.591842 0.029841
vt 0.548284 0.007647
vt 0.500000 -0.000000
vt 0.451716 0.007647
vt 0.408159 0.029841
vt 0.373591 0.064409
vt 0.351397 0.107966
vt 0.343750 0.156250
vt 0.351397 0.204534
vt 0.373591 0.248091
vt 0.408159 0.282659
vt 0.451716 0.304853
vt 0.500000 0.312500
vt 0.548284 0.304853
vt 0.591841 0.282659
vt 0.626409 0.248091
vt 0.648603 0.204534
vt 0.656250 0.156250
vt 0.375000 0.312500
vt 0.387500 0.312500
vt 0.400000 0.312500
vt 0.412500 0.312500
vt 0.425000 0.312500
vt 0.437500 0.312500
vt 0.450000 0.312500
vt 0.462500 0.312500
vt 0.475000 0.312500
vt 0.487500 0.312500
vt 0.500000 0.312500
vt 0.512500 0.312500
vt 0.525000 0.312500
vt 0.537500 0.312500
vt 0.550000 0.312500
vt 0.562500 0.312500
vt 0.575000 0.312500
vt 0.587500 0.312500
vt 0.600000 0.312500
vt 0.612500 0.312500
vt 0.625000 0.312500
vt 0.375000 0.688440
vt 0.387500 0.688440
vt 0.400000 0.688440
vt 0.412500 0.688440
vt 0.425000 0.688440
vt 0.437500 0.688440
vt 0.450000 0.688440
vt 0.462500 0.688440
vt 0.475000 0.688440
vt 0.487500 0.688440
vt 0.500000 0.688440
vt 0.512500 0.688440
vt 0.525000 0.688440
vt 0.537500 0.688440
vt 0.550000 0.688440
vt 0.562500 0.688440
vt 0.575000 0.688440
vt 0.587500 0.688440
vt 0.600000 0.688440
vt 0.612500 0.688440
vt 0.625000 0.688440
vt 0.648603 0.795466
vt 0.626409 0.751908
vt 0.591842 0.717341
vt 0.548284 0.695147
vt 0.500000 0.687500
vt 0.451716 0.695147
vt 0.408159 0.717341
vt 0.373591 0.751909
vt 0.351397 0.795466
vt 0.343750 0.843750
vt 0.351397 0.892034
vt 0.373591 0.935591
vt 0.408159 0.970159
vt 0.451716 0.992353
vt 0.500000 1.000000
vt 0.548284 0.992353
vt 0.591841 0.970159
vt 0.626409 0.935591
vt 0.648603 0.892034
vt 0.656250 0.843750
vt 0.500000 0.150000
vt 0.500000 0.837500
vn -0.032433 0.951062 -0.307293
vn -0.027632 0.810268 -0.585408
vn -0.027632 0.810268 -0.585408
vn -0.032433 0.951062 -0.307293
vn -0.020114 0.589819 -0.807285
vn -0.020114 0.589819 -0.807285
vn -0.010591 0.310567 -0.950492
vn -0.010591 0.310567 -0.950492
vn 0.000000 -0.000000 -1.000000
vn 0.000000 -0.000000 -1.000000
vn 0.010591 -0.310568 -0.950492
vn 0.010591 -0.310568 -0.950492
vn 0.020114 -0.589820 -0.807284
vn 0.020114 -0.589820 -0.807284
vn 0.027632 -0.810268 -0.585408
vn 0.027632 -0.810268 -0.585408
vn 0.032433 -0.951062 -0.307293
vn 0.032433 -0.951062 -0.307293
vn 0.034082 -0.999419 0.000000
vn 0.034082 -0.999419 0.000000
vn 0.032433 -0.951062 0.307294
vn 0.032433 -0.951062 0.307294
vn 0.027632 -0.810268 0.585408
vn 0.027632 -0.810268 0.585408
vn 0.020114 -0.589819 0.807285
vn 0.020114 -0.589819 0.807285
vn 0.010591 -0.310567 0.950492
vn 0.010591 -0.310567 0.950492
vn -0.000000 0.000000 1.000000
vn -0.000000 0.000000 1.000000
vn -0.010591 0.310568 0.950492
vn -0.010591 0.310568 0.950492
vn -0.020114 0.589819 0.807285
vn -0.020114 0.589819 0.807285
vn -0.027632 0.810268 0.585408
vn -0.027632 0.810268 0.585408
vn -0.032433 0.951062 0.307294
vn -0.032433 0.951062 0.307294
vn -0.034082 0.999419 0.000001
vn -0.034082 0.999419 0.000001
vn 0.999419 0.034082 0.000000
vn 0.999419 0.034082 0.000000
vn 0.999419 0.034082 0.000000
vn 0.999419 0.034082 0.000000
vn 0.999419 0.034082 0.000000
vn 0.999419 0.034082 0.000000
vn 0.999419 0.034082 0.000000
vn 0.999419 0.034082 0.000000
vn 0.999419 0.034082 0.000000
vn 0.999419 0.034082 0.000000
vn 0.999419 0.034082 0.000000
vn 0.999419 0.034082 0.000000
vn 0.999419 0.034082 0.000000
vn 0.999419 0.034082 0.000000
vn 0.999419 0.034082 0.000000
vn 0.999419 0.034082 0.000000
vn 0.999419 0.034082 0.000000
vn 0.999419 0.034082 0.000000
vn 0.999419 0.034082 0.000000
vn 0.999419 0.034082 0.000000
vn 0.999419 0.034082 0.000000
vn -0.999419 -0.034082 0.000000
vn -0.999419 -0.034082 0.000000
vn -0.999419 -0.034082 0.000000
vn -0.999419 -0.034082 0.000000
vn -0.999419 -0.034082 0.000000
vn -0.999419 -0.034082 0.000000
vn -0.999419 -0.034082 0.000000
vn -0.999419 -0.034082 0.000000
vn -0.999419 -0.034082 0.000000
vn -0.999419 -0.034082 0.000000
vn -0.999419 -0.034082 0.000000
vn -0.999419 -0.034082 0.000000
vn -0.999419 -0.034082 0.000000
vn -0.999419 -0.034082 0.000000
vn -0.999419 -0.034082 0.000000
vn -0.999419 -0.034082 0.000000
vn -0.999419 -0.034082 0.000000
vn -0.999419 -0.034082 0.000000
vn -0.999419 -0.034082 0.000000
vn -0.999419 -0.034082 0.000000
vn -0.999419 -0.034082 0.000000
s 1
g pCylinder1
usemtl initialShadingGroup
f 45/87/169 46/88/170 66/109/171 65/108/172
f 46/88/170 47/89/173 67/110/174 66/109/171
f 47/89/173 48/90/175 68/111/176 67/110/174
f 48/90/175 49/91/177 69/112/178 68/111/176
f 49/91/177 50/92/179 70/113/180 69/112/178
f 50/92/179 51/93/181 71/114/182 70/113/180
f 51/93/181 52/94/183 72/115/184 71/114/182
f 52/94/183 53/95/185 73/116/186 72/115/184
f 53/95/185 54/96/187 74/117/188 73/116/186
f 54/96/187 55/97/189 75/118/190 74/117/188
f 55/97/189 56/98/191 76/119/192 75/118/190
f 56/98/191 57/99/193 77/120/194 76/119/192
f 57/99/193 58/100/195 78/121/196 77/120/194
f 58/100/195 59/101/197 79/122/198 78/121/196
f 59/101/197 60/102/199 80/123/200 79/122/198
f 60/102/199 61/103/201 81/124/202 80/123/200
f 61/103/201 62/104/203 82/125/204 81/124/202
f 62/104/203 63/105/205 83/126/206 82/125/204
f 63/105/205 64/106/207 84/127/208 83/126/206
f 64/106/207 45/107/169 65/128/172 84/127/208
s 2
f 46/68/209 45/67/210 85/149/211
f 47/69/212 46/68/209 85/149/211
f 48/70/213 47/69/212 85/149/211
f 49/71/214 48/70/213 85/149/211
f 50/72/215 49/71/214 85/149/211
f 51/73/216 50/72/215 85/149/211
f 52/74/217 51/73/216 85/149/211
f 53/75/218 52/74/217 85/149/211
f 54/76/219 53/75/218 85/149/211
f 55/77/220 54/76/219 85/149/211
f 56/78/221 55/77/220 85/149/211
f 57/79/222 56/78/221 85/149/211
f 58/80/223 57/79/222 85/149/211
f 59/81/224 58/80/223 85/149/211
f 60/82/225 59/81/224 85/149/211
f 61/83/226 60/82/225 85/149/211
f 62/84/227 61/83/226 85/149/211
f 63/85/228 62/84/227 85/149/211
f 64/86/229 63/85/228 85/149/211
f 45/67/210 64/86/229 85/149/211
s 3
f 65/147/230 66/146/231 86/150/232
f 66/146/231 67/145/233 86/150/232
f 67/145/233 68/144/234 86/150/232
f 68/144/234 69/143/235 86/150/232
f 69/143/235 70/142/236 86/150/232
f 70/142/236 71/141/237 86/150/232
f 71/141/237 72/140/238 86/150/232
f 72/140/238 73/139/239 86/150/232
f 73/139/239 74/138/240 86/150/232
f 74/138/240 75/137/241 86/150/232
f 75/137/241 76/136/242 86/150/232
f 76/136/242 77/135/243 86/150/232
f 77/135/243 78/134/244 86/150/232
f 78/134/244 79/133/245 86/150/232
f 79/133/245 80/132/246 86/150/232
f 80/132/246 81/131/247 86/150/232
f 81/131/247 82/130/248 86/150/232
f 82/130/248 83/129/249 86/150/232
f 83/129/249 84/148/250 86/150/232
f 84/148/250 65/147/230 86/150/232
