# This file uses centimeters as units for non-parametric coordinates.

mtllib xian.mtl
g default
v -1.296367 39.836923 -0.067785
v -1.267782 39.837896 -0.127766
v -1.223304 39.839411 -0.175346
v -1.167288 39.841321 -0.205867
v -1.105217 39.843437 -0.216342
v -1.043166 39.845553 -0.205746
v -0.987210 39.847463 -0.175115
v -0.942826 39.848978 -0.127449
v -0.914358 39.849951 -0.067412
v -0.904593 39.850286 -0.000883
v -0.914488 39.849951 0.065628
v -0.943073 39.848978 0.125609
v -0.987550 39.847463 0.173189
v -1.043566 39.845553 0.203710
v -1.105637 39.843437 0.214185
v -1.167688 39.841321 0.203589
v -1.223644 39.839411 0.172958
v -1.268028 39.837896 0.125292
v -1.296496 39.836923 0.065255
v -1.306261 39.836588 -0.001274
v -0.198629 7.647107 -0.066714
v -0.170044 7.648080 -0.126695
v -0.125566 7.649595 -0.174275
v -0.069550 7.651505 -0.204796
v -0.007479 7.653621 -0.215271
v 0.054572 7.655737 -0.204675
v 0.110528 7.657647 -0.174044
v 0.154912 7.659162 -0.126378
v 0.183380 7.660135 -0.066341
v 0.193145 7.660470 0.000188
v 0.183250 7.660135 0.066699
v 0.154665 7.659162 0.126680
v 0.110188 7.657647 0.174260
v 0.054172 7.655737 0.204781
v -0.007899 7.653621 0.215256
v -0.069950 7.651505 0.204660
v -0.125906 7.649595 0.174029
v -0.170290 7.648080 0.126363
v -0.198758 7.647107 0.066326
v -0.208523 7.646772 -0.000203
v -1.105427 39.843437 -0.001078
v -0.007689 7.653621 -0.000008
vt 0.648603 0.107966
vt 0.626409 0.064408
vt 0.591842 0.029841
vt 0.548284 0.007647
vt 0.500000 -0.000000
vt 0.451716 0.007647
vt 0.408159 0.029841
vt 0.373591 0.064409
vt 0.351397 0.107966
vt 0.343750 0.156250
vt 0.351397 0.204534
vt 0.373591 0.248091
vt 0.408159 0.282659
vt 0.451716 0.304853
vt 0.500000 0.312500
vt 0.548284 0.304853
vt 0.591841 0.282659
vt 0.626409 0.248091
vt 0.648603 0.204534
vt 0.656250 0.156250
vt 0.375000 0.312500
vt 0.387500 0.312500
vt 0.400000 0.312500
vt 0.412500 0.312500
vt 0.425000 0.312500
vt 0.437500 0.312500
vt 0.450000 0.312500
vt 0.462500 0.312500
vt 0.475000 0.312500
vt 0.487500 0.312500
vt 0.500000 0.312500
vt 0.512500 0.312500
vt 0.525000 0.312500
vt 0.537500 0.312500
vt 0.550000 0.312500
vt 0.562500 0.312500
vt 0.575000 0.312500
vt 0.587500 0.312500
vt 0.600000 0.312500
vt 0.612500 0.312500
vt 0.625000 0.312500
vt 0.375000 0.688440
vt 0.387500 0.688440
vt 0.400000 0.688440
vt 0.412500 0.688440
vt 0.425000 0.688440
vt 0.437500 0.688440
vt 0.450000 0.688440
vt 0.462500 0.688440
vt 0.475000 0.688440
vt 0.487500 0.688440
vt 0.500000 0.688440
vt 0.512500 0.688440
vt 0.525000 0.688440
vt 0.537500 0.688440
vt 0.550000 0.688440
vt 0.562500 0.688440
vt 0.575000 0.688440
vt 0.587500 0.688440
vt 0.600000 0.688440
vt 0.612500 0.688440
vt 0.625000 0.688440
vt 0.648603 0.795466
vt 0.626409 0.751908
vt 0.591842 0.717341
vt 0.548284 0.695147
vt 0.500000 0.687500
vt 0.451716 0.695147
vt 0.408159 0.717341
vt 0.373591 0.751909
vt 0.351397 0.795466
vt 0.343750 0.843750
vt 0.351397 0.892034
vt 0.373591 0.935591
vt 0.408159 0.970159
vt 0.451716 0.992353
vt 0.500000 1.000000
vt 0.548284 0.992353
vt 0.591841 0.970159
vt 0.626409 0.935591
vt 0.648603 0.892034
vt 0.656250 0.843750
vt 0.500000 0.150000
vt 0.500000 0.837500
vn -0.956109 -0.032615 -0.291189
vn -0.826577 -0.028207 -0.562117
vn -0.826577 -0.028207 -0.562117
vn -0.956109 -0.032615 -0.291189
vn -0.613066 -0.020933 -0.789754
vn -0.613066 -0.020933 -0.789754
vn -0.327608 -0.011204 -0.944747
vn -0.327608 -0.011204 -0.944747
vn 0.000976 0.000000 -1.000000
vn 0.000976 0.000000 -1.000000
vn 0.329451 0.011204 -0.944106
vn 0.329451 0.011204 -0.944106
vn 0.614607 0.020933 -0.788556
vn 0.614607 0.020933 -0.788556
vn 0.827672 0.028207 -0.560503
vn 0.827672 0.028207 -0.560503
vn 0.956676 0.032615 -0.289324
vn 0.956676 0.032615 -0.289324
vn 0.999419 0.034082 0.000975
vn 0.999419 0.034082 0.000975
vn 0.956109 0.032615 0.291190
vn 0.956109 0.032615 0.291190
vn 0.826577 0.028207 0.562117
vn 0.826577 0.028207 0.562117
vn 0.613067 0.020933 0.789754
vn 0.613067 0.020933 0.789754
vn 0.327608 0.011204 0.944747
vn 0.327608 0.011204 0.944747
vn -0.000976 -0.000000 1.000000
vn -0.000976 -0.000000 1.000000
vn -0.329450 -0.011204 0.944106
vn -0.329450 -0.011204 0.944106
vn -0.614606 -0.020933 0.788556
vn -0.614606 -0.020933 0.788556
vn -0.827672 -0.028207 0.560503
vn -0.827672 -0.028207 0.560503
vn -0.956676 -0.032615 0.289324
vn -0.956676 -0.032615 0.289324
vn -0.999419 -0.034082 -0.000974
vn -0.999419 -0.034082 -0.000974
vn -0.034082 0.999419 -0.000033
vn -0.034082 0.999419 -0.000033
vn -0.034082 0.999419 -0.000033
vn -0.034082 0.999419 -0.000033
vn -0.034082 0.999419 -0.000033
vn -0.034082 0.999419 -0.000033
vn -0.034082 0.999419 -0.000033
vn -0.034082 0.999419 -0.000033
vn -0.034082 0.999419 -0.000033
vn -0.034082 0.999419 -0.000033
vn -0.034082 0.999419 -0.000033
vn -0.034082 0.999419 -0.000033
vn -0.034082 0.999419 -0.000033
vn -0.034082 0.999419 -0.000033
vn -0.034082 0.999419 -0.000033
vn -0.034082 0.999419 -0.000033
vn -0.034082 0.999419 -0.000033
vn -0.034082 0.999419 -0.000033
vn -0.034082 0.999419 -0.000033
vn -0.034082 0.999419 -0.000033
vn -0.034082 0.999419 -0.000033
vn 0.034082 -0.999419 0.000033
vn 0.034082 -0.999419 0.000033
vn 0.034082 -0.999419 0.000033
vn 0.034082 -0.999419 0.000033
vn 0.034082 -0.999419 0.000033
vn 0.034082 -0.999419 0.000033
vn 0.034082 -0.999419 0.000033
vn 0.034082 -0.999419 0.000033
vn 0.034082 -0.999419 0.000033
vn 0.034082 -0.999419 0.000033
vn 0.034082 -0.999419 0.000033
vn 0.034082 -0.999419 0.000033
vn 0.034082 -0.999419 0.000033
vn 0.034082 -0.999419 0.000033
vn 0.034082 -0.999419 0.000033
vn 0.034082 -0.999419 0.000033
vn 0.034082 -0.999419 0.000033
vn 0.034082 -0.999419 0.000033
vn 0.034082 -0.999419 0.000033
vn 0.034082 -0.999419 0.000033
vn 0.034082 -0.999419 0.000033
s 1
g pCylinder1 group1
usemtl lambert14SG
f 1/21/1 2/22/2 22/43/3 21/42/4
f 2/22/2 3/23/5 23/44/6 22/43/3
f 3/23/5 4/24/7 24/45/8 23/44/6
f 4/24/7 5/25/9 25/46/10 24/45/8
f 5/25/9 6/26/11 26/47/12 25/46/10
f 6/26/11 7/27/13 27/48/14 26/47/12
f 7/27/13 8/28/15 28/49/16 27/48/14
f 8/28/15 9/29/17 29/50/18 28/49/16
f 9/29/17 10/30/19 30/51/20 29/50/18
f 10/30/19 11/31/21 31/52/22 30/51/20
f 11/31/21 12/32/23 32/53/24 31/52/22
f 12/32/23 13/33/25 33/54/26 32/53/24
f 13/33/25 14/34/27 34/55/28 33/54/26
f 14/34/27 15/35/29 35/56/30 34/55/28
f 15/35/29 16/36/31 36/57/32 35/56/30
f 16/36/31 17/37/33 37/58/34 36/57/32
f 17/37/33 18/38/35 38/59/36 37/58/34
f 18/38/35 19/39/37 39/60/38 38/59/36
f 19/39/37 20/40/39 40/61/40 39/60/38
f 20/40/39 1/41/1 21/62/4 40/61/40
s 2
f 2/2/41 1/1/42 41/83/43
f 3/3/44 2/2/41 41/83/43
f 4/4/45 3/3/44 41/83/43
f 5/5/46 4/4/45 41/83/43
f 6/6/47 5/5/46 41/83/43
f 7/7/48 6/6/47 41/83/43
f 8/8/49 7/7/48 41/83/43
f 9/9/50 8/8/49 41/83/43
f 10/10/51 9/9/50 41/83/43
f 11/11/52 10/10/51 41/83/43
f 12/12/53 11/11/52 41/83/43
f 13/13/54 12/12/53 41/83/43
f 14/14/55 13/13/54 41/83/43
f 15/15/56 14/14/55 41/83/43
f 16/16/57 15/15/56 41/83/43
f 17/17/58 16/16/57 41/83/43
f 18/18/59 17/17/58 41/83/43
f 19/19/60 18/18/59 41/83/43
f 20/20/61 19/19/60 41/83/43
f 1/1/42 20/20/61 41/83/43
s 3
f 21/81/62 22/80/63 42/84/64
f 22/80/63 23/79/65 42/84/64
f 23/79/65 24/78/66 42/84/64
f 24/78/66 25/77/67 42/84/64
f 25/77/67 26/76/68 42/84/64
f 26/76/68 27/75/69 42/84/64
f 27/75/69 28/74/70 42/84/64
f 28/74/70 29/73/71 42/84/64
f 29/73/71 30/72/72 42/84/64
f 30/72/72 31/71/73 42/84/64
f 31/71/73 32/70/74 42/84/64
f 32/70/74 33/69/75 42/84/64
f 33/69/75 34/68/76 42/84/64
f 34/68/76 35/67/77 42/84/64
f 35/67/77 36/66/78 42/84/64
f 36/66/78 37/65/79 42/84/64
f 37/65/79 38/64/80 42/84/64
f 38/64/80 39/63/81 42/84/64
f 39/63/81 40/82/82 42/84/64
f 40/82/82 21/81/62 42/84/64
